<?xml version="1.0" encoding="UTF-8"?>
<svg version="1.1" xmlns="http://www.w3.org/2000/svg" width="250" height="250">
<path d="M0 0 C9.37020715 -0.49011323 18.73591424 -0.86134234 28.11621094 -1.08805561 C32.47437766 -1.19697902 36.82369228 -1.34408567 41.17675781 -1.58422852 C69.22384992 -3.09183197 69.22384992 -3.09183197 77.1394043 2.0322876 C82.19182172 6.85025329 85.63938215 12.3566122 88.74885559 18.56784058 C90.36078372 21.70134472 92.29486985 24.25948002 94.5 27 C95.16644531 27.89203125 95.83289063 28.7840625 96.51953125 29.703125 C100.72444037 35.3096705 104.98960404 40.871007 109.2421875 46.44140625 C110.54638989 48.15044946 111.84901695 49.86069624 113.14990234 51.57226562 C114.36740867 53.16990127 115.59153637 54.76251621 116.82275391 56.34960938 C117.64718994 57.42178711 117.64718994 57.42178711 118.48828125 58.515625 C118.97466064 59.14243164 119.46104004 59.76923828 119.9621582 60.41503906 C121 62 121 62 121 64 C129.38977749 55.70208139 137.27125852 47.01698214 144.65625 37.8125 C147.33208385 34.60149938 150.14361138 31.54973865 153 28.5 C156.68766221 24.56209116 160.23614624 20.57813664 163.625 16.375 C164.30836426 15.55104736 164.99172852 14.72709473 165.69580078 13.87817383 C168.02278113 11.05604011 168.02278113 11.05604011 169.94238281 8.09301758 C175.38638659 0.73664255 175.38638659 0.73664255 180.043396 -0.57592773 C185.73026113 -1.36726808 191.41330675 -1.00475583 197.125 -0.6875 C198.86182327 -0.63223155 200.59881651 -0.58205746 202.3359375 -0.53710938 C206.56154099 -0.41678157 210.77886957 -0.22757565 215 0 C212.20944508 4.27057929 209.3199439 7.97760624 205.8125 11.6875 C202.24729487 15.49952246 198.8283918 19.36109491 195.5625 23.4375 C191.71889943 28.21621628 187.63039836 32.69157687 183.44165039 37.16381836 C180.32446055 40.51099327 177.36426202 43.93005023 174.5 47.5 C171.15697445 51.66666952 167.64879479 55.60413948 164 59.5 C159.49022837 64.31667481 155.23241221 69.26290775 151.1171875 74.42578125 C148.35439045 77.78497545 145.37253907 80.915118 142.3359375 84.02734375 C140.77759314 85.86375582 140.77759314 85.86375582 141.22460938 87.85571289 C142.14817191 90.40975879 143.40120783 92.13761911 145.0703125 94.28125 C145.71162109 95.11269531 146.35292969 95.94414063 147.01367188 96.80078125 C147.71041016 97.69152344 148.40714844 98.58226563 149.125 99.5 C150.59709193 101.40568033 152.06842881 103.31194411 153.5390625 105.21875 C154.66103027 106.66894531 154.66103027 106.66894531 155.80566406 108.1484375 C159.07849775 112.40151911 162.29049583 116.69904973 165.5 121 C170.61427942 127.83677142 175.7602612 134.64827734 180.9375 141.4375 C181.59991699 142.30616699 182.26233398 143.17483398 182.94482422 144.06982422 C186.31788188 148.49056784 189.69485713 152.90829281 193.07421875 157.32421875 C200.7656555 167.38410033 208.36548111 177.50219978 215.84765625 187.71875 C217.83206229 190.42481295 219.83540739 193.11355321 221.87109375 195.78125 C222.29914307 196.34320068 222.72719238 196.90515137 223.16821289 197.48413086 C224.28263538 198.94169537 225.40278168 200.3948788 226.5234375 201.84765625 C228 204 228 204 228 206 C218.78591029 206.32558285 209.57382198 206.57370635 200.35521889 206.72537041 C196.07343926 206.79819902 191.7956153 206.89678627 187.51611328 207.05615234 C183.37897952 207.20923754 179.24562553 207.29215799 175.10587692 207.3282814 C173.5337812 207.35398801 171.96187413 207.40420227 170.39140701 207.48022079 C158.4442362 208.03507464 158.4442362 208.03507464 154.39635468 204.66480255 C151.43101926 201.36143628 149.22965931 197.69306283 147.08499908 193.82456207 C145.28803726 190.80274534 143.08955318 188.16446362 140.875 185.4375 C140.37709961 184.80875977 139.87919922 184.18001953 139.36621094 183.53222656 C138.74407715 182.75057129 138.74407715 182.75057129 138.109375 181.953125 C134.38660106 177.2447674 130.75764051 172.46552112 127.125 167.6875 C126.44711426 166.79675781 125.76922852 165.90601563 125.07080078 164.98828125 C121.78428044 160.66791394 118.50287243 156.34373923 115.2265625 152.015625 C114.06775422 150.48954849 112.90890241 148.96350503 111.75 147.4375 C111.2255127 146.74164795 110.70102539 146.0457959 110.16064453 145.32885742 C107.6200644 141.98794038 105.07575713 138.87802989 102 136 C101.23429687 136.96486328 101.23429687 136.96486328 100.453125 137.94921875 C96.13629507 143.31464034 91.70634644 148.47644761 87 153.5 C83.3510772 157.39573475 79.84301497 161.33334366 76.5 165.5 C73.15697842 169.66666457 69.64883069 173.60417858 66 177.5 C62.31233779 181.43790884 58.76385376 185.42186336 55.375 189.625 C54.69228027 190.44895264 54.00956055 191.27290527 53.30615234 192.12182617 C50.97825064 194.94634235 50.97825064 194.94634235 49.04003906 197.90698242 C43.56119482 205.26334519 43.56119482 205.26334519 38.99761963 206.57592773 C33.46310046 207.36469237 27.93478644 207.00534227 22.375 206.6875 C20.68635839 206.6322277 18.99754179 206.58205429 17.30859375 206.53710938 C13.20135161 206.4168167 9.10263522 206.22764117 5 206 C5.58042645 202.87556781 6.41600508 201.20423676 8.625 198.93359375 C9.1619751 198.37148193 9.6989502 197.80937012 10.25219727 197.23022461 C10.82897217 196.63862549 11.40574707 196.04702637 12 195.4375 C16.02077186 191.21960463 19.92292579 186.99534616 23.5625 182.4375 C26.8825224 178.28899495 30.37051167 174.37474704 34 170.5 C37.64888449 166.60423719 41.15698438 162.66665716 44.5 158.5 C48.31994011 153.73891522 52.38938819 149.28726975 56.55859375 144.8359375 C60.45217592 140.65504266 64.06181413 136.29971149 67.62890625 131.8359375 C70.92100473 127.89843586 74.43821063 124.18119984 78.015625 120.50195312 C82.19525832 116.33895087 82.19525832 116.33895087 84 111 C82.36855789 107.9363252 80.17018458 105.39342366 77.9375 102.75 C76.62409372 101.13224578 75.31161432 99.51373867 74 97.89453125 C73.32839844 97.07678223 72.65679687 96.2590332 71.96484375 95.41650391 C69.03972809 91.81898964 66.23740151 88.13273139 63.4375 84.4375 C62.36368756 83.02963792 61.28946817 81.62208614 60.21484375 80.21484375 C59.68487793 79.51987793 59.15491211 78.82491211 58.60888672 78.10888672 C55.90914153 74.57013119 53.20430311 71.03527277 50.5 67.5 C49.4166425 66.08335181 48.33330916 64.66668515 47.25 63.25 C46.71375 62.54875 46.1775 61.8475 45.625 61.125 C39.66666667 53.33333333 33.70833333 45.54166667 27.75 37.75 C26.9446582 36.6969165 26.9446582 36.6969165 26.12304688 35.62255859 C25.04607879 34.21414094 23.96925449 32.80561333 22.89257812 31.39697266 C20.08806092 27.72815425 17.28063498 24.06161293 14.46875 20.3984375 C13.59766602 19.26245117 13.59766602 19.26245117 12.70898438 18.10351562 C11.60705515 16.66659992 10.50425577 15.2303509 9.40039062 13.79492188 C0 1.52987956 0 1.52987956 0 0 Z M44 21 C46.79618889 26.18722928 49.94133897 30.65043618 53.6875 35.1875 C54.76703564 36.51578185 55.84514843 37.8452213 56.921875 39.17578125 C57.44845703 39.82627441 57.97503906 40.47676758 58.51757812 41.14697266 C61.29892524 44.62365655 63.93891958 48.20390353 66.59375 51.77734375 C69.50553257 55.69160436 72.47205478 59.56382828 75.4375 63.4375 C75.99904785 64.1711377 76.5605957 64.90477539 77.13916016 65.66064453 C80.35725037 69.86201413 83.58262449 74.05768683 86.8125 78.25 C91.93709386 84.90444815 97.02238019 91.58864383 102.10986328 98.27148438 C106.56443181 104.12106669 111.03539801 109.95730578 115.5234375 115.78125 C120.14169997 121.77781647 124.73091344 127.79672214 129.32666016 133.81054688 C132.05033263 137.37428991 134.7752013 140.93711803 137.5 144.5 C146.4130541 156.15449754 146.4130541 156.15449754 149.02636719 159.58227539 C150.12546256 161.01655932 151.23150253 162.44555067 152.34472656 163.86889648 C154.89603584 167.14492216 157.29735538 170.39845908 159.44140625 173.95703125 C163.08238014 180.12181211 163.08238014 180.12181211 169.08496094 183.54101562 C174.12699043 184.09863982 178.99011234 183.67999635 184 183 C180.09886971 176.97433524 175.96160349 171.24539524 171.5 165.625 C166.55100579 159.33059692 161.72178227 152.96649945 157 146.5 C152.43346648 140.25099225 147.77753014 134.0892181 143 128 C137.61156204 121.13214715 132.40054674 114.15298024 127.25 107.10546875 C123.25873194 101.66202057 119.16641858 96.31032368 115 91 C109.61156204 84.13214715 104.40054674 77.15298024 99.25 70.10546875 C94.70667574 63.90910464 90.01523287 57.8421002 85.27197266 51.7980957 C80.25762194 45.38568919 75.41621734 38.85396775 70.6171875 32.27929688 C69.54699188 30.81408801 68.46873719 29.35471652 67.38085938 27.90258789 C66 26 66 26 64.1796875 22.9765625 C61.22693545 20.29897731 59.13439266 20.48223251 55.25 20.56054688 C54.0125 20.62338867 54.0125 20.62338867 52.75 20.6875 C51.90953125 20.71005859 51.0690625 20.73261719 50.203125 20.75585938 C48.13465036 20.81462286 46.06709512 20.90430115 44 21 Z " fill="#F5F5F5" transform="translate(12,23)"/>
<path d="M0 0 C1.37562854 1.28965176 2.70766393 2.62689293 4 4 C4 4.66 4 5.32 4 6 C-19.76 6 -43.52 6 -68 6 C-68 5.67 -68 5.34 -68 5 C-45.56 4.67 -23.12 4.34 0 4 C0 2.68 0 1.36 0 0 Z " fill="#A9A9A9" transform="translate(236,223)"/>
<path d="M0 0 C0.66 0.99 1.32 1.98 2 3 C4.47491114 3.33814748 6.71351688 3.48872339 9.1953125 3.51171875 C9.90275604 3.52966995 10.61019958 3.54762115 11.33908081 3.56611633 C13.60099303 3.62034442 15.86269284 3.65415316 18.125 3.6875 C19.65758173 3.72066226 21.19013538 3.7551509 22.72265625 3.79101562 C26.48161779 3.87607727 30.240515 3.94282753 34 4 C34 4.33 34 4.66 34 5 C22.12 5 10.24 5 -2 5 C-1 1 -1 1 0 0 Z " fill="#A6A6A6" transform="translate(19,224)"/>
</svg>
